# MagicaVoxel @ Ephtracy

# group
o 

# material
mtllib fakel.mtl
usemtl palette

# normals
vn -1 0 0
vn 1 0 0
vn 0 0 1
vn 0 0 -1
vn 0 -1 0
vn 0 1 0

# texcoords
vt 0.861328 0.5
vt 0.982422 0.5

# verts
v 0.1 2.2 -0.1
v 0.1 2.2 -0.3
v 0.1 2.3 -0.1
v 0.1 2.3 -0.3
v 0.1 2.5 -0.1
v 0.1 2.5 -0.3
v 0.2 2 -0.1
v 0.2 2 -0.3
v 0.2 2.2 -0.1
v 0.2 2.2 -0.3
v 0.3 2.3 -0.2
v 0.3 2.3 -0.3
v 0.3 2.5 -0.2
v 0.3 2.5 -0.3
v 0.2 2.3 -0.2
v 0.2 2.3 -0.3
v 0.2 2.5 -0.2
v 0.2 2.5 -0.3
v 0.3 2 -0.1
v 0.3 2 -0.3
v 0.3 2.2 -0.1
v 0.3 2.2 -0.3
v 0.4 2.2 -0.1
v 0.4 2.2 -0.3
v 0.4 2.3 -0.1
v 0.4 2.3 -0.3
v 0.4 2.5 -0.1
v 0.4 2.5 -0.3
v 0.1 2.2 -0.1
v 0.1 2.3 -0.1
v 0.1 2.5 -0.1
v 0.2 2 -0.1
v 0.2 2.2 -0.1
v 0.3 2 -0.1
v 0.3 2.2 -0.1
v 0.4 2.2 -0.1
v 0.4 2.3 -0.1
v 0.4 2.5 -0.1
v 0.2 2.3 -0.2
v 0.2 2.5 -0.2
v 0.3 2.3 -0.2
v 0.3 2.5 -0.2
v 0.1 2.2 -0.3
v 0.1 2.3 -0.3
v 0.1 2.5 -0.3
v 0.2 2 -0.3
v 0.2 2.2 -0.3
v 0.2 2.3 -0.3
v 0.2 2.5 -0.3
v 0.3 2 -0.3
v 0.3 2.2 -0.3
v 0.3 2.3 -0.3
v 0.3 2.5 -0.3
v 0.4 2.2 -0.3
v 0.4 2.3 -0.3
v 0.4 2.5 -0.3
v 0.2 2 -0.1
v 0.3 2 -0.1
v 0.2 2 -0.3
v 0.3 2 -0.3
v 0.1 2.2 -0.1
v 0.2 2.2 -0.1
v 0.3 2.2 -0.1
v 0.4 2.2 -0.1
v 0.1 2.2 -0.3
v 0.2 2.2 -0.3
v 0.3 2.2 -0.3
v 0.4 2.2 -0.3
v 0.2 2.3 -0.2
v 0.3 2.3 -0.2
v 0.2 2.3 -0.3
v 0.3 2.3 -0.3
v 0.1 2.5 -0.1
v 0.4 2.5 -0.1
v 0.2 2.5 -0.2
v 0.3 2.5 -0.2
v 0.1 2.5 -0.3
v 0.2 2.5 -0.3
v 0.3 2.5 -0.3
v 0.4 2.5 -0.3

# faces
f 3/1/1 2/1/1 1/1/1
f 4/1/1 2/1/1 3/1/1
f 5/2/1 4/2/1 3/2/1
f 6/2/1 4/2/1 5/2/1
f 9/1/1 8/1/1 7/1/1
f 10/1/1 8/1/1 9/1/1
f 13/2/1 12/2/1 11/2/1
f 14/2/1 12/2/1 13/2/1
f 15/2/2 16/2/2 17/2/2
f 17/2/2 16/2/2 18/2/2
f 19/1/2 20/1/2 21/1/2
f 21/1/2 20/1/2 22/1/2
f 23/1/2 24/1/2 25/1/2
f 25/1/2 24/1/2 26/1/2
f 25/2/2 26/2/2 27/2/2
f 27/2/2 26/2/2 28/2/2
f 33/1/3 30/1/3 29/1/3
f 34/1/3 33/1/3 32/1/3
f 35/1/3 30/1/3 33/1/3
f 35/1/3 33/1/3 34/1/3
f 36/1/3 30/1/3 35/1/3
f 37/2/3 31/2/3 30/2/3
f 37/1/3 30/1/3 36/1/3
f 38/2/3 31/2/3 37/2/3
f 39/2/4 40/2/4 41/2/4
f 41/2/4 40/2/4 42/2/4
f 43/1/4 44/1/4 47/1/4
f 44/2/4 45/2/4 48/2/4
f 47/1/4 44/1/4 48/1/4
f 48/2/4 45/2/4 49/2/4
f 46/1/4 47/1/4 50/1/4
f 47/1/4 48/1/4 50/1/4
f 50/1/4 48/1/4 51/1/4
f 51/1/4 48/1/4 52/1/4
f 51/1/4 52/1/4 54/1/4
f 52/2/4 53/2/4 55/2/4
f 54/1/4 52/1/4 55/1/4
f 55/2/4 53/2/4 56/2/4
f 59/1/5 58/1/5 57/1/5
f 60/1/5 58/1/5 59/1/5
f 65/1/5 62/1/5 61/1/5
f 66/1/5 62/1/5 65/1/5
f 67/1/5 64/1/5 63/1/5
f 68/1/5 64/1/5 67/1/5
f 69/1/6 70/1/6 71/1/6
f 71/1/6 70/1/6 72/1/6
f 73/2/6 74/2/6 75/2/6
f 75/2/6 74/2/6 76/2/6
f 73/2/6 75/2/6 77/2/6
f 77/2/6 75/2/6 78/2/6
f 76/2/6 74/2/6 79/2/6
f 79/2/6 74/2/6 80/2/6
